<?xml version="1.0" encoding="utf-8"?>
<!-- Uploaded to: SVG Repo, www.svgrepo.com, Generator: SVG Repo Mixer Tools -->
<svg width="800px" height="800px" viewBox="280 0 170 240" xmlns="http://www.w3.org/2000/svg"><defs><style>.a{fill:#ffffff;}.b{fill:#211715;}.c{fill:#f4b467;}.d{fill:#7a7473;}.e{fill:#65a0d4;}.f{fill:#3f88c9;}</style></defs><path class="a" d="M91.9,208.574l255.6-.016c0-5.689.008-12.118.012-19.1L2.081,189.47c0,5.39-.081.911-.081,9.945H12.154c-.021,1.464-.044,4.362-.044,9.165Z"/><path class="a" d="M14.9,2.136h-.337A1.894,1.894,0,0,0,12.67,4.031V189.466c53.014,0,283.31-.008,334.836-.01.029-59.374.08-172.347.087-185.453a1.886,1.886,0,0,0-1.89-1.894C301.959,2.112,54.557,2.134,14.9,2.136Z"/><path class="b" d="M14.67,189.417V5.23c0-.235.012-.474,0-.71-.016-.317.059-.452-.052-.384.561-.342,2.447,0,3.116,0h3.8l21.186,0,29.151,0,35.288,0,39.19,0,40.975,0,40.647,0,38.032,0,33.673,0,27.01,0h18.232c.731,0,.744-.24.679.436-.049.514,0,1.056,0,1.573q0,2.2,0,4.4,0,6.474-.008,12.948-.01,19.353-.022,38.705-.015,23.74-.029,47.48L345.5,156.1q-.006,9.584-.013,19.168c0,2.574,4,2.578,4,0q.015-21.435.028-42.871.016-24.333.031-48.665.013-22.184.026-44.366L349.591,9.3c0-3.486.894-8.981-4.066-9.19-2.579-.109-5.186,0-7.767,0H314.973l-30.718,0-36.476,0-40.058,0-41.466,0-40.7,0-37.92,0-32.605,0-25.3,0H20.538c-2.492,0-6.852-.719-8.72,1.148-1.932,1.932-1.148,6.654-1.148,9.21V189.417c0,2.573,4,2.578,4,0Z"/><path class="b" d="M318.663,187.457l-65.587,0-79.042,0-77.806,0-61.758,0H2.081a2.029,2.029,0,0,0-2,2c0,3.316-.08,6.629-.081,9.945a2.03,2.03,0,0,0,2,2H12.154l-2-2c-.043,3.055-.044,6.11-.044,9.165a2.029,2.029,0,0,0,2,2H41.266l27.848,0,33.8,0,38.049,0,40.114,0,39.95,0,38.152,0,34.122,0,27.935,0h5.728c2.574,0,2.578-4,0-4l-26.294,0-32.677,0-37.352,0-39.65,0-40.309,0-38.744,0-34.981,0-29.537,0H12.11l2,2c0-3.055,0-6.11.044-9.165a2.028,2.028,0,0,0-2-2H2l2,2c0-3.316.079-6.629.081-9.945l-2,2H28.75l59.023,0,76.686,0,79.466,0,67.851,0h6.887c2.574,0,2.578-4,0-4Z"/><path class="a" d="M83.472,188.753c0-4.976.043-5.278.043-8.247,6.368,0,16.852-.008,25.684-.008,0,3.848.03,5.538.03,8.242C103.982,188.74,91.66,188.753,83.472,188.753Z"/><path class="a" d="M118.789,188.753c0-4.976.043-5.278.043-8.247,6.369,0,16.853-.008,25.685-.008,0,3.848.03,5.538.03,8.242C139.3,188.74,126.977,188.753,118.789,188.753Z"/><path class="b" d="M232.361,197.6q-3.808,0-7.619,0l-15.861.011-22,.016-26.25.019-28.547.021-29.025.022-27.281.02-23.721.017-18.211.012q-5.376,0-10.752.006h-1.28c-2.574,0-2.578,4,0,4q4.307,0,8.613,0l16.644-.01,22.566-.016,26.6-.02,28.681-.021,28.943-.022,26.985-.02,23.209-.017,17.485-.012,9.811-.006h1.015c2.574,0,2.578-4,0-4Z"/><path class="b" d="M312.366,197.6q-11.548,0-23.1.05-15.5.042-31,.08-6.362.013-12.724.018c-2.573,0-2.578,4,0,4q12.894,0,25.788-.05,15.131-.039,30.26-.08,5.389-.012,10.778-.018c2.574,0,2.579-4,0-4Z"/><path class="b" d="M85.472,188.753c0-2.749.041-5.5.043-8.247l-2,2q12.841,0,25.684-.008l-2-2c0,2.747.029,5.5.03,8.242l2-2q-12.879,0-25.757.013c-2.574,0-2.578,4,0,4q12.878,0,25.757-.013a2.028,2.028,0,0,0,2-2c0-2.747-.029-5.5-.03-8.242a2.028,2.028,0,0,0-2-2q-12.841,0-25.684.008a2.028,2.028,0,0,0-2,2c0,2.749-.043,5.5-.043,8.247C81.471,191.327,85.471,191.331,85.472,188.753Z"/><path class="b" d="M120.789,188.753c0-2.749.042-5.5.043-8.247l-2,2q12.843,0,25.685-.008l-2-2c0,2.747.028,5.5.03,8.242l2-2q-12.879,0-25.758.013c-2.574,0-2.578,4,0,4q12.879,0,25.758-.013a2.03,2.03,0,0,0,2-2c0-2.747-.029-5.5-.03-8.242a2.029,2.029,0,0,0-2-2q-12.843,0-25.685.008a2.03,2.03,0,0,0-2,2c0,2.749-.042,5.5-.043,8.247C116.788,191.327,120.788,191.331,120.789,188.753Z"/><path class="c" d="M28.7,188.753c0-12.755.074-10.621.074-18.231,10.871,0,28.769-.021,43.845-.021,0,9.864.052,11.288.052,18.219C63.71,188.72,42.675,188.753,28.7,188.753Z"/><path class="b" d="M30.7,188.753c0-6.077.073-12.154.074-18.231l-2,2q21.923,0,43.845-.021l-2-2c0,6.073.051,12.146.052,18.219l2-2q-21.985,0-43.971.033c-2.574,0-2.578,4,0,4q21.986,0,43.971-.033a2.029,2.029,0,0,0,2-2c0-6.073-.051-12.146-.052-18.219a2.029,2.029,0,0,0-2-2q-21.922,0-43.845.021a2.028,2.028,0,0,0-2,2c0,6.077-.073,12.154-.074,18.231C26.7,191.327,30.7,191.331,30.7,188.753Z"/><path class="a" d="M45.417,189.283c0-14.786.018-12.313.018-21.135,2.6,0,6.889-.025,10.5-.025,0,11.435.012,13.087.012,21.121C53.8,189.244,48.765,189.283,45.417,189.283Z"/><path class="b" d="M47.417,189.283q0-10.567.018-21.135l-2,2c3.5,0,7-.024,10.5-.025l-2-2q0,10.561.012,21.121l2-2c-3.51,0-7.02.038-10.53.039-2.573,0-2.578,4,0,4,3.51,0,7.02-.037,10.53-.039a2.028,2.028,0,0,0,2-2q0-10.56-.012-21.121a2.029,2.029,0,0,0-2-2c-3.5,0-7,.024-10.5.025a2.029,2.029,0,0,0-2,2q0,10.568-.018,21.135C43.417,191.857,47.417,191.861,47.417,189.283Z"/><path class="a" d="M317.057,134.086c-.072.25-.172.595-.291,1.014a8,8,0,0,0-1.808-.537c-4.337-.795-9.074.165-9.228,2.407-.2,1.114.089,2.1.967,3.862-.769.769-1.329,2.984-.741,3.456l.558,1.179a2.912,2.912,0,0,0-3.019.827c-.89.975-1.568,3.077-.5,3.844l1.558,1.113-.329-.114c-1.8-.625-4.3.965-4.156,2.611a5.131,5.131,0,0,0,2.06,3.19,28.425,28.425,0,0,0,7.672,9.253c.771.6,1.572,1.169,2.317,1.805a15.834,15.834,0,0,1,3.547,4.328,108.979,108.979,0,0,0,16.246-6.787c-.7-8.977-.991-17.851-2.587-20.321-2.027-3.137-4.74-4.522-5.48-7.908-.515-2.354-1.766-5.443-4.267-5.59a2.268,2.268,0,0,0-2.39,1.912S317.142,133.793,317.057,134.086Z"/><path class="a" d="M434.138,85.255a4.424,4.424,0,0,1,3.539-1.036,4.181,4.181,0,0,1,3,2,5.906,5.906,0,0,1,.618,2.375,17.687,17.687,0,0,1-1.8,9.379,11.257,11.257,0,0,1-2.908,3.817,3.519,3.519,0,0,1-4.354.4,26.614,26.614,0,0,1-1.152,4.161c-.987,2.636-6.391,11.607-13.273,15.167,0,2.565-.153,5.677.772,7.974,1.44,3.552,9.193,8.028,9.727,8.26,0,0-2.384,28.037-24.014,28.037-25.481,0-24.66-28.662-24.66-28.662.534-.232,7.076-4.083,8.515-7.635,1-2.48.743-5.916.779-8.585a26.11,26.11,0,0,1-6.848-5.872,29.965,29.965,0,0,1-6.034-12.154l-.437.119a4.228,4.228,0,0,1-3.832-1.211,11.257,11.257,0,0,1-2.908-3.817,17.7,17.7,0,0,1-1.8-9.379,5.906,5.906,0,0,1,.618-2.375,4.181,4.181,0,0,1,3-2,4.424,4.424,0,0,1,3.539,1.036s1.366-28.394,29.514-28.394S434.138,85.255,434.138,85.255Z"/><path class="d" d="M438.65,65.132a23.92,23.92,0,0,0-.983-3.21c-1.478-3.776-3.743-8.135-8.329-10.653l-5.382-4.046c-5.369-8.889-15.268-10.627-23.7-10.037-10.017.7-17.157,3.39-23.667,11.037C367.1,59.365,366.836,74.1,370.42,84.275a1.966,1.966,0,0,1,.264-.056,4.424,4.424,0,0,1,3.539,1.036l4.7-5.111c1.964-2.793,7.533-9.717,11.767-10.563,3.027-.605,6.253.051,9.392-.075,5.692-.229,10.4-2.925,15.448-4.892.672-.261,1.35-.51,2.037-.739a2.773,2.773,0,0,1,1.2-.2,2.133,2.133,0,0,1,1.208.7c5.861,5.721,11.366,13.942,12.359,22.517.907-.825,1.809-1.639,1.809-1.639a4.424,4.424,0,0,1,3.539-1.036,3.282,3.282,0,0,1,.394.083A38.2,38.2,0,0,0,438.65,65.132Z"/><path class="b" d="M415.8,122.321c-.02,2.728-.08,5.637,1.051,8.178a12.279,12.279,0,0,0,3.308,4.033,41.03,41.03,0,0,0,4.609,3.432,20,20,0,0,0,2.527,1.513,2.06,2.06,0,0,0,2.736-.718,2.016,2.016,0,0,0-.717-2.736,18.617,18.617,0,0,1-2.267-1.344q-1-.639-1.96-1.327c-.352-.252-.7-.508-1.044-.772.293.226-.206-.167-.262-.212-.172-.139-.341-.279-.509-.421a19.314,19.314,0,0,1-1.837-1.747c-.113-.124-.219-.255-.331-.38q-.214-.265.01.025c-.063-.082-.124-.166-.184-.252a6,6,0,0,1-.518-.869c-.188-.395.13.464-.071-.217-.093-.317-.187-.631-.258-.954a10.26,10.26,0,0,1-.212-1.523c-.094-1.234-.08-2.473-.071-3.709.019-2.574-3.981-2.577-4,0Z"/><path class="b" d="M386.925,122.031a22.074,22.074,0,0,1-.441,6.149c-.023.081-.266.786-.123.44a4.487,4.487,0,0,1-.209.423,9.1,9.1,0,0,1-.539.846c-.136.182-.139.187-.011.016-.056.07-.114.14-.173.209-.123.138-.242.279-.366.415-.279.3-.57.595-.87.878-.518.488-1.317,1.159-1.706,1.46-.331.256-1.12.822-1.652,1.179a15.938,15.938,0,0,1-2.212,1.352,2.016,2.016,0,0,0-.718,2.737,2.048,2.048,0,0,0,2.737.717,17.17,17.17,0,0,0,2.481-1.534,30.721,30.721,0,0,0,4.175-3.349,11.06,11.06,0,0,0,3.01-4.611,24.719,24.719,0,0,0,.617-7.327c-.014-2.573-4.014-2.578-4,0Z"/><path class="b" d="M430.386,100.627a16.11,16.11,0,0,1-.968,4.406c-.07.208-.142.416-.213.624-.012.037-.22.584-.078.232s-.086.183-.114.24c-.066.137-.132.274-.2.411a35.977,35.977,0,0,1-3.122,5.018c-2.755,3.787-6.459,7.754-11.091,9.1-2.467.715-1.418,4.576,1.064,3.857,5.616-1.629,9.952-6.146,13.325-10.721,2.853-3.871,5.2-8.249,5.4-13.164.106-2.574-3.894-2.569-4,0Z"/><path class="b" d="M373,97.083c.7,5.641,2.12,11.191,5.2,16.039,3.612,5.676,9.381,10.758,16.206,11.832a2.062,2.062,0,0,0,2.46-1.4,2.015,2.015,0,0,0-1.4-2.46c-5.981-.942-10.935-5.307-14.035-10.344A34.705,34.705,0,0,1,377,97.083a2.063,2.063,0,0,0-2-2,2.012,2.012,0,0,0-2,2Z"/><path class="b" d="M435.552,86.669a2.332,2.332,0,0,1,3.4.556,5.578,5.578,0,0,1,.4,2.488,14.833,14.833,0,0,1-.212,2.984,15.738,15.738,0,0,1-2.108,5.57c-.741,1.178-1.935,2.756-3.319,2.386-2.49-.664-3.552,3.194-1.064,3.858,3.223.859,5.747-1.217,7.5-3.723a18.883,18.883,0,0,0,3.063-8.512c.345-2.827.342-6.415-1.947-8.471a6.477,6.477,0,0,0-8.55.036,2.015,2.015,0,0,0,0,2.828,2.043,2.043,0,0,0,2.828,0Z"/><path class="b" d="M375.637,83.841a6.479,6.479,0,0,0-8.549-.036c-2.35,2.11-2.29,5.814-1.918,8.7a18.6,18.6,0,0,0,3.209,8.53c1.815,2.489,4.523,4.607,7.76,3.894,2.513-.554,1.449-4.411-1.063-3.857-1.408.31-2.911-1.53-3.589-2.55a15.5,15.5,0,0,1-2.241-5.665A14.755,14.755,0,0,1,369,89.918a5.875,5.875,0,0,1,.408-2.693,2.332,2.332,0,0,1,3.4-.556,2.053,2.053,0,0,0,2.828,0,2.015,2.015,0,0,0,0-2.828Z"/><path class="b" d="M372.178,83.248c-3.593-10.878-2.1-23.507,5.038-32.654a27.912,27.912,0,0,1,13.557-9.747A40.465,40.465,0,0,1,407.09,39.29c6.175.694,11.82,3.558,15.139,8.942,1.348,2.187,4.81.181,3.454-2.019-7.023-11.392-21.528-12.654-33.483-9.9-13.1,3.022-22.7,14.469-25.164,27.472a41.266,41.266,0,0,0,1.285,20.522c.8,2.433,4.668,1.391,3.857-1.063Z"/><path class="b" d="M380.648,81.153a38.556,38.556,0,0,1,6.958-7.664,8.5,8.5,0,0,1,4.069-2.061c2.7-.381,5.46.163,8.17.084,5.115-.148,9.693-2.24,14.321-4.2,1.093-.463,2.195-.906,3.315-1.3a3.478,3.478,0,0,1,1.015-.287c.4.131,1.029,1.035,1.305,1.323a46.143,46.143,0,0,1,4.5,5.472c3.035,4.361,5.473,9.363,6.064,14.7a2.06,2.06,0,0,0,2,2,2.013,2.013,0,0,0,2-2A35.675,35.675,0,0,0,428.69,71.9a51.628,51.628,0,0,0-4.835-6.349c-1.7-1.915-3.553-4.427-6.435-3.724a54.059,54.059,0,0,0-7.778,3.1,32.024,32.024,0,0,1-7.895,2.434c-5.118.7-10.412-1.221-15.035,1.841-3.806,2.521-6.9,6.229-9.518,9.927-1.49,2.105,1.977,4.106,3.454,2.019Z"/><path class="b" d="M428.328,53c4.5,2.551,7.1,7.465,8.317,12.354a35.107,35.107,0,0,1-.227,17.51c-.686,2.485,3.172,3.546,3.857,1.064a39.2,39.2,0,0,0,.139-19.983c-1.509-5.752-4.785-11.4-10.067-14.4-2.243-1.272-4.261,2.183-2.019,3.453Z"/><path class="a" d="M361.818,222.449c-.211-7.736-.518-16.525-.909-25.438l-.277.362-.918,1.2a116.881,116.881,0,0,1-11.067,12.256,16.909,16.909,0,0,1-12.914,4c-6.821-1.106-9.805-7.594-12.59-13.925-4-9.106-6.853-18.9-9.7-28,5.705-1.241,14.791-5.4,20.5-8.407,2.254,5.543,4.241,10.482,6.515,15.806,4.093-10.607,5.146-16.407,9.162-26.893.745-1.946,1.3-3.7,2.726-5.222a14.754,14.754,0,0,1,4.885-3.13c5.481-2.477,18.609-7.5,25.253-10.48a23.308,23.308,0,0,1,5.324-7.848,44.344,44.344,0,0,0,12.8,8.921c.265.12.56.267.646.545a1.025,1.025,0,0,1-.148.723h4.39a1.031,1.031,0,0,1-.148-.723c.086-.278.381-.425.646-.545a44.362,44.362,0,0,0,12.8-8.921,22.927,22.927,0,0,1,5.1,7.336c5.827,2.332,20.685,8.046,26.284,10.751,1.8.869,3.77,1.649,5.132,3.109a17,17,0,0,1,3.054,5.632c4.046,10.564,4.873,16.166,8.919,26.731H448.763c-.769,18.27-1.521,39.771-1.814,54.084-13.364,0-74.317-.14-84.8-.14C362.089,231,361.924,226.332,361.818,222.449Z"/><path class="e" d="M405.4,234.139a114.913,114.913,0,0,0,8.145-10.031c.746-1.087,1.383-1.673,1.454-2.487a19.083,19.083,0,0,0-.185-3.175c-1.552-17.437-3.853-44.694-6.816-70.134a11.073,11.073,0,0,1,.688-3.035c.427-1.311,1.319-4.317.85-3.248-.477-.578-.949-1.15-1.392-1.693-.776-.949-1.466-1.806-1.95-2.434l-5.791.007c-.484.627-1.172,1.481-1.945,2.427-.31.379-.633.773-.962,1.173.251,1.349.736,2.786,1.053,4.142.057.269.125.528.192.8a7.378,7.378,0,0,1,.288,1.766c-2.153,23.425-4.919,52.379-6.854,72.415a4.534,4.534,0,0,0,.177,2.271,10.78,10.78,0,0,0,1.174,1.793,81.852,81.852,0,0,0,8.055,9.534,3.273,3.273,0,0,0,1.8.938,2.762,2.762,0,0,0,1.975-.979Z"/><path class="b" d="M307.284,155.714c.054.076.235.425.079.087-.184-.4.01.319-.036-.122-.041-.39-.006.067-.008.158,0,.054-.011.111-.008.165.011.238.1-.479.019-.14-.028.112-.049.224-.081.334-.02.071-.189.518-.052.188s-.054.087-.093.153a.767.767,0,0,0-.083.132c-.054.164.257-.27.133-.169a.682.682,0,0,0-.129.134c-.082.125.185-.156.211-.158a1.562,1.562,0,0,0-.362.214c-.169.111.179-.071.191-.073a1.205,1.205,0,0,0-.182.067,4.292,4.292,0,0,1-.509.136c-.462.094.287,0-.063.008-.132,0-.264.01-.4.006a1.938,1.938,0,0,0-.26-.018c.011,0,.415.087.218.022-.168-.056-.349-.1-.519-.154-.23-.068.118.054.117.054-.05,0-.166-.078-.211-.1-.164-.081-.325-.169-.482-.261-.317-.187-.622-.4-.918-.612-.083-.061-.178-.122-.254-.19.014.012.268.214.094.07-.131-.107-.265-.212-.392-.324-.26-.228-.49-.477-.727-.728-.257-.272.158.251-.051-.057-.094-.139-.188-.279-.271-.426-.035-.062-.067-.126-.1-.188-.183-.331.048.051.032.093a3.193,3.193,0,0,0-.149-.529c.018.02,0,.368.031.214a.783.783,0,0,0,0-.145c-.025-.329,0,.551,0,.1,0-.049.043-.093.047-.14,0,.018-.208.379-.1.249.043-.051.32-.482.1-.189-.206.274.1-.081.176-.158.027-.029.112-.076.125-.112-.04.1-.388.262-.085.073.115-.072.228-.145.348-.209a1.2,1.2,0,0,0,.209-.1c-.041.055-.421.148-.151.069.15-.045.3-.1.449-.13.056-.013.116-.018.171-.033.2-.056-.509.011-.131.027.13.006.268.01.4.009.246,0-.411-.131-.2-.02a2.009,2.009,0,1,0,1.333-3.781,5.546,5.546,0,0,0-5.337,1.42,4.343,4.343,0,0,0-1.338,2.734,4.93,4.93,0,0,0,.829,2.951,8.793,8.793,0,0,0,2.018,2.209,12.431,12.431,0,0,0,2.591,1.7,5.95,5.95,0,0,0,3.319.545,5.436,5.436,0,0,0,2.944-1.247c1.447-1.29,2.147-4.171.951-5.826a2.048,2.048,0,0,0-2.737-.717,2.022,2.022,0,0,0-.717,2.736Z"/><path class="b" d="M308.659,144.188a6.1,6.1,0,0,0-4.249-.69,5.066,5.066,0,0,0-2.954,2.187,5.79,5.79,0,0,0-1,3.4,3.594,3.594,0,0,0,.564,1.827,3.53,3.53,0,0,0,.968.958c.11.083.222.161.332.244-.252-.19.238.192.29.234,1.487,1.205,3.061,2.292,4.6,3.428a12,12,0,0,0,1.979,1.271,5.16,5.16,0,0,0,3.642.221,4.77,4.77,0,0,0,3.237-2.9,4.954,4.954,0,0,0-.628-4.638,2,2,0,0,0-3.454,2.019,3.6,3.6,0,0,1,.406.677c-.167-.4.007.556-.009-.025,0,.085,0,.646.019.347s-.01.017-.03.094-.058.3-.108.336c-.007,0,.246-.43.029-.113a.753.753,0,0,0-.1.166c-.06.232.262-.286.088-.107-.09.094-.126.267-.04.071.08-.179.069-.034-.077.045-.062.034-.125.07-.186.106-.357.211.064-.055.075-.025,0,.007-.319.1-.357.111-.1.026-.2.04-.292.067-.273.076.37-.014.09-.011-.167,0-.336.007-.5.012-.412.01.146-.007.131.027-.008.019-.111-.04-.13-.032s-.131-.051-.144-.051c.088,0,.487.241.194.072a18.1,18.1,0,0,1-1.547-1q-1.5-1.087-3.009-2.161c-.041-.03-.348-.256-.164-.118s-.12-.095-.159-.127c-.169-.136-.337-.274-.5-.411-.2-.163-.4-.324-.6-.483-.186-.147-.374-.292-.561-.435l-.16-.122q-.281-.215-.092-.063l.072.059q-.169-.176,0,.032c.174.243.06.071.03.014.208.389.13.3.08.152-.111-.334.058.144.019.169,0,0,0-.277,0-.257-.013-.327.042.167-.026.132a2.527,2.527,0,0,1,.137-.541,1.165,1.165,0,0,1,.1-.267c-.256.317-.076.168,0,.03a2.868,2.868,0,0,1,.319-.519c.033.011-.347.365-.076.113a2.511,2.511,0,0,0,.232-.229c.149-.186-.32.151-.1.073a1.832,1.832,0,0,0,.28-.167c.271-.166-.111.095-.112.045a1.589,1.589,0,0,1,.26-.076c.344-.113-.063.042-.117,0a1.925,1.925,0,0,0,.367-.009c.074,0,.391.051.122,0-.3-.057.163.047.221.063.115.032.227.07.339.109-.33-.114.165.083.235.118a2,2,0,1,0,2.019-3.453Z"/><path class="b" d="M313.7,148.178c-1.69-1.371-3.332-2.8-4.994-4.2q-.468-.4-.942-.785a3.178,3.178,0,0,0-.279-.227c-.177-.115-.159-.271.1.2.271.493.134.392.1.234.119.592.027.287.028.1,0,.011.018-.245.012-.25.1.071-.1.461,0,.062.056-.21.1-.42.171-.626a1.35,1.35,0,0,1,.1-.272c-.243.366-.086.191-.026.092a1.416,1.416,0,0,0,.164-.287q.127-.193-.135.156a1.585,1.585,0,0,1,.13-.142c.052-.048.315-.237.1-.1-.259.163.192-.093.2-.1-.069.04-.387.117-.037.022.1-.028.2-.055.309-.081.361-.093.024,0-.054,0,.136,0,.27-.01.406,0s.444.109.034,0c.158.043.315.081.472.129-.088-.027-.393-.2.009.013.12.064.241.125.361.189q.389.21.767.437a16.706,16.706,0,0,1,1.451.982c-.283-.215-.037-.027.015.016.09.076.182.15.271.226q.334.284.654.585c.391.367.768.75,1.125,1.149.1.109.195.22.289.332.068.082.287.392.05.056.124.177.248.353.36.537q.192.315.352.648c.024.051.167.377.074.154s.1.287.119.336l.021.068q.072.332,0-.1a1.1,1.1,0,0,1-.008.442c.016-.034.123-.453-.01-.086-.04.111-.219.528-.009.1-.047.094-.092.186-.145.277s-.345.424-.044.107c-.071.075-.134.154-.208.227a2.238,2.238,0,0,1-.168.154q-.166.144.108-.086c-.083.034-.172.1-.253.146.24-.093.248-.105.023-.038l.207-.035c-.39-.07-.007,0,.046.02-.154-.043-.461-.165-.151-.02a5.123,5.123,0,0,1-.8-.476c-.052-.036-.334-.245-.119-.082s-.209-.171-.25-.2a2.05,2.05,0,0,0-2.828,0,2.023,2.023,0,0,0,0,2.829c1.225.993,2.586,2.028,4.26,1.923a4.735,4.735,0,0,0,3.835-2.866,5.092,5.092,0,0,0,.51-2.336,6.516,6.516,0,0,0-.8-2.548,12.475,12.475,0,0,0-2.637-3.335,18.936,18.936,0,0,0-3.577-2.7,6.563,6.563,0,0,0-4.829-1.023,4.831,4.831,0,0,0-3.441,3.1,4.614,4.614,0,0,0-.064,3.966,6.489,6.489,0,0,0,1.525,1.434c.5.418.991.842,1.485,1.265,1.232,1.055,2.471,2.1,3.731,3.124a2.05,2.05,0,0,0,2.828,0A2.023,2.023,0,0,0,313.7,148.178Z"/><path class="b" d="M319.119,134.162c.092-.294.075-.45.307-.471.409-.037.825.383,1.054.654a8.446,8.446,0,0,1,1.439,3.5c.842,3.345,3.421,5.207,5.337,7.88a5.888,5.888,0,0,1,1.075,2.748,39.758,39.758,0,0,1,.6,4.208c.412,4.063.627,8.145.932,12.216.192,2.551,4.193,2.572,4,0-.285-3.806-.5-7.62-.855-11.42a31.1,31.1,0,0,0-1.352-7.966c-1.027-2.736-3.545-4.373-5.065-6.769a18.618,18.618,0,0,1-1.349-3.806,9.468,9.468,0,0,0-2.256-3.737,5.1,5.1,0,0,0-4.769-1.319,4.5,4.5,0,0,0-2.957,3.224c-.772,2.462,3.089,3.515,3.857,1.063Z"/><path class="b" d="M314.189,140.8a33.486,33.486,0,0,0,1.736,6.525,9.233,9.233,0,0,1,.106,5.891,2.02,2.02,0,0,0,1.4,2.46,2.041,2.041,0,0,0,2.461-1.4,13.017,13.017,0,0,0,.114-7.321c-.579-2.014-1.59-4.27-1.813-6.159a2.051,2.051,0,0,0-2-2c-.978.044-2.132.888-2,2Z"/><path class="b" d="M314.861,143.123c2.007-.5,4.407-1.26,5.486-3.191a4.629,4.629,0,0,0-.787-5.315c-1.806-1.919-4.893-2.287-7.381-2.328-2.171-.035-4.768.232-6.588,1.539a4.668,4.668,0,0,0-1.362,1.412,3.749,3.749,0,0,0-.372.877c-.02.07-.03.14-.045.212-.327,1.585.068-.812-.107.8a7.958,7.958,0,0,0,1,4.17,2.015,2.015,0,0,0,2.736.717,2.046,2.046,0,0,0,.718-2.736c-.067-.144-.137-.287-.2-.434.018.043.074.181,0-.021s-.15-.42-.209-.635a4.979,4.979,0,0,1-.108-.5c.069.437.03-.086.029-.253,0-.043.011-.313,0-.044-.024.479-.069-.831.036-.264.033.179-.028.2,0,.053.019-.086.108-.21-.026.036-.158.292-.019.059.025,0,.118-.171-.147.192-.146.176.006-.1.282-.272.347-.338-.216.22-.189.141.031.01.145-.087.3-.15.448-.234.187-.109-.1.044-.125.051.1-.032.2-.075.3-.109.214-.072.432-.135.651-.19.174-.044.349-.082.525-.117.121-.024.243-.044.365-.065.018,0,.327-.046.112-.019s.1-.009.119-.011c.132-.011.264-.025.4-.035.237-.018.474-.029.711-.036.49-.014.982-.006,1.472.024q.321.019.642.05c.038,0,.477.052.271.027-.137-.017.233.035.271.041a9.847,9.847,0,0,1,1.5.351c.1.031.189.065.283.1-.033-.013-.247-.115-.044-.02s.4.213.6.328c.069.04.131.09.2.133-.341-.219-.133-.112-.059-.03.092.1.19.2.285.3-.366-.373-.091-.032,0,.071.143.163-.133-.188-.085-.2a2.424,2.424,0,0,1,.074.272c.013.048.015.1.029.146.066.236-.156-.023-.033-.244a.95.95,0,0,0,.013.279,1.2,1.2,0,0,0-.008.183c-.017-.026.111-.445.042-.309-.045.091-.2.46-.011.149s-.03,0-.065.094c-.1.254.073-.148.14-.165-.039.01-.108.127-.14.157-.051.048-.112.1-.159.153-.178.2.09-.037.128-.089a1.556,1.556,0,0,1-.448.288c-.176.1-.361.181-.541.275.347-.181-.118.045-.252.094a17.6,17.6,0,0,1-1.753.517,2,2,0,0,0,1.063,3.857Z"/><path class="b" d="M301.268,159.5a30.682,30.682,0,0,0,5.829,7.03c1.162,1.03,2.479,1.919,3.611,2.885a13.939,13.939,0,0,1,2.834,3.247A2,2,0,0,0,317,170.638a18.228,18.228,0,0,0-3.113-3.752c-1.171-1.06-2.457-1.9-3.619-2.894a26.431,26.431,0,0,1-5.542-6.516,2,2,0,1,0-3.454,2.019Z"/><path class="b" d="M294.844,86.71c4.448,12.084,8.787,24.208,13.328,36.257q1.993,5.289,4.052,10.553a2.06,2.06,0,0,0,2.46,1.4,2.014,2.014,0,0,0,1.4-2.46c-5-12.721-9.64-25.582-14.316-38.424q-1.527-4.194-3.064-8.386c-.882-2.4-4.749-1.36-3.857,1.063Z"/><path class="a" d="M291.118,81.656c.1.25.627,1.544,1.494,3.673a2.208,2.208,0,0,0,2.862,1.222l2.487-1a2.2,2.2,0,0,0,1.227-2.857c-.843-2.133-1.118-2.818-1.461-3.671a3.949,3.949,0,0,0-4.664-2.262A3.8,3.8,0,0,0,291.118,81.656Z"/><path class="b" d="M289.189,82.188l.8,1.961c.595,1.463,1.019,2.986,2.412,3.9a4.283,4.283,0,0,0,2.186.661,5.609,5.609,0,0,0,2.309-.584c1.484-.595,3.106-1.048,3.916-2.566a4.262,4.262,0,0,0,.526-2.225,7.117,7.117,0,0,0-.651-2.26q-.443-1.114-.889-2.229a7.722,7.722,0,0,0-.713-1.52,6.4,6.4,0,0,0-1.6-1.629,5.837,5.837,0,0,0-3.637-1.079A5.134,5.134,0,0,0,289.813,77a5.81,5.81,0,0,0-.624,5.193,2.046,2.046,0,0,0,2.46,1.4,2.021,2.021,0,0,0,1.4-2.46c-.064-.168-.286-.612-.229-.806l.033.213c-.007-.079-.011-.157-.011-.236s-.035-.313.013-.387c-.01.016-.108.478,0,.082.032-.12.057-.241.094-.36.105-.341.129-.061-.021,0a3.066,3.066,0,0,0,.2-.38c.059-.1.128-.194.189-.293.147-.233-.332.328-.016.036.064-.059.121-.127.184-.187l.094-.087c.132-.109.129-.108-.007,0l-.1.083c.066-.046.133-.088.2-.127.249-.18-.1.054-.169.054a1.72,1.72,0,0,0,.321-.1l.111-.025q.32-.057-.191.02a2.445,2.445,0,0,0,.526-.011c.268,0,.187.144-.117-.027a1.276,1.276,0,0,0,.237.046c.1.021.5.21.585.178-.141.05-.372-.185-.138-.053.128.072.258.136.381.214a1.714,1.714,0,0,0,.259.177c-.115.044-.308-.277-.112-.072.087.09.18.182.27.268.227.215-.132-.079-.069-.108a3.325,3.325,0,0,1,.338.556c.074.13.1.358-.065-.165.022.071.056.14.084.21q.338.839.671,1.68c.171.429.34.858.51,1.287.088.223.161.455.251.676.154.38.036-.423,0-.021v.127q-.025.332.026-.157c-.023.009-.04.262-.066.242-.083-.063.246-.415.023-.079s.05-.052.06-.047c.029.019-.189.167-.178.181s.376-.281-.015-.013c-.071.048-.314.136.061-.018-.325.133-.651.261-.977.392-.527.211-1.051.43-1.586.618-.35.123.118-.053.149-.005h-.38c.021-.022.513.09.16,0-.387-.094.325.22.013.019-.392-.254,0,.017-.009.028l-.093-.085c-.143-.157-.122-.118.063.114a2.284,2.284,0,0,1-.14-.22c-.195-.305.107.293-.054-.109-.217-.543-.44-1.083-.66-1.624l-.693-1.7a2.052,2.052,0,0,0-2.46-1.4A2.022,2.022,0,0,0,289.189,82.188Z"/><path class="b" d="M399.433,150.133c2.765,0,5.529-.061,8.294-.062a2,2,0,0,0,0-4c-2.765,0-5.529.061-8.294.062a2,2,0,0,0,0,4Z"/><path class="b" d="M395.585,142.162c.374,1.766.992,3.479,1.329,5.253a18.176,18.176,0,0,1-.264,4.867q-.447,4.839-.9,9.677-.954,10.235-1.925,20.467c-1.2,12.621-2.427,25.238-3.621,37.859a6.418,6.418,0,0,0,.828,4.358,52.66,52.66,0,0,0,3.324,4.439q1.725,2.174,3.6,4.225c1.116,1.225,2.233,2.7,3.761,3.415,3.421,1.6,5.737-1.859,7.673-4.127,2.168-2.539,4.194-5.16,6.151-7.863a5.9,5.9,0,0,0,1.476-3.715c0-1.39-.229-2.8-.352-4.183q-.372-4.215-.743-8.429-.837-9.476-1.706-18.949-1.105-11.949-2.331-23.887-.63-6.076-1.308-12.148-.183-1.629-.37-3.256a8.194,8.194,0,0,1-.1-2.639c.333-1.615,1-3.173,1.41-4.772.647-2.493-3.21-3.557-3.857-1.063-.305,1.173-.681,2.323-1.044,3.479a12.423,12.423,0,0,0-.589,2.7,14.483,14.483,0,0,0,.235,2.759q.588,5.132,1.134,10.267,1.109,10.389,2.093,20.79c1.138,11.928,2.177,23.864,3.236,35.8.1,1.11.554,2.738.289,3.835a3.449,3.449,0,0,1-.667,1.046c-.551.752-1.077,1.521-1.633,2.27-1.8,2.421-3.769,4.719-5.757,6.986-.352.4-.874,1.282-1.386,1.468-.3.11.274.19-.16.021a2.363,2.363,0,0,1-.738-.626q-1.845-1.9-3.568-3.908c-1.048-1.222-2.063-2.473-3.027-3.763-.535-.717-1.115-1.431-1.59-2.19a2.777,2.777,0,0,1-.316-2c1.029-12.017,2.31-24.017,3.448-36.024q1.033-10.893,2.052-21.788.492-5.268.979-10.535a20.364,20.364,0,0,0,.213-5.49c-.354-1.924-1.015-3.781-1.421-5.694-.534-2.516-4.391-1.451-3.857,1.064Z"/><path class="b" d="M406.2,135.9l-5.778.007a2,2,0,1,0,0,4l5.778-.007a2,2,0,0,0,0-4Z"/><path class="b" d="M414.827,148.145a57.256,57.256,0,0,0,8.048-10.911c.579-.954,1.152-1.911,1.733-2.864a2.854,2.854,0,0,0,.608-1.881,5.081,5.081,0,0,0-.794-1.761,23.4,23.4,0,0,0-4.217-5.414,2.036,2.036,0,0,0-2.829,0,41.554,41.554,0,0,1-6.866,5.566c-1.209.783-2.454,1.511-3.734,2.171-1.239.64-2.942,1.092-3.36,2.612a3.548,3.548,0,0,0,.917,3.077c.835,1.109,1.716,2.183,2.595,3.257,1.683,2.055,3.394,4.087,5.07,6.148a2.015,2.015,0,0,0,2.829,0,2.047,2.047,0,0,0,0-2.829c-1.4-1.72-2.824-3.419-4.234-5.13-.794-.963-1.588-1.927-2.365-2.9-.215-.27-.432-.539-.635-.818-.089-.122-.176-.28-.277-.393-.184-.206.058-.258.028.123l-.273,1.01q-.524.43-.071.172l.3-.137c.3-.141.6-.283.9-.43q.912-.453,1.8-.948c1.221-.681,2.409-1.422,3.562-2.213a46.541,46.541,0,0,0,6.648-5.506h-2.829a20.915,20.915,0,0,1,4.149,5.623v-2.019c-2.895,4.721-5.59,9.613-9.527,13.57C410.181,147.143,413.008,149.973,414.827,148.145Z"/><path class="b" d="M394.6,145.316c-3.937-3.957-6.632-8.849-9.526-13.57v2.019a20.911,20.911,0,0,1,4.148-5.623h-2.829a46.684,46.684,0,0,0,6.649,5.506q1.728,1.188,3.561,2.213.816.454,1.65.873.447.224.9.435.224.1.448.207.452.258-.072-.172l-.273-1.01c-.026-.338.228-.346.028-.123-.084.095-.148.215-.222.318-.219.306-.456.6-.69.893-.777.977-1.57,1.941-2.364,2.9-1.41,1.711-2.835,3.41-4.234,5.13a2.059,2.059,0,0,0,0,2.829,2.015,2.015,0,0,0,2.828,0c1.643-2.019,3.318-4.01,4.968-6.023.89-1.085,1.778-2.173,2.628-3.29a3.634,3.634,0,0,0,.986-3.169c-.406-1.477-2-1.918-3.21-2.535-1.28-.654-2.526-1.375-3.736-2.152a41.661,41.661,0,0,1-7.014-5.662,2.037,2.037,0,0,0-2.829,0,23.357,23.357,0,0,0-4.134,5.269,7.465,7.465,0,0,0-.841,1.641,2.646,2.646,0,0,0,.572,2.146c.581.953,1.155,1.91,1.734,2.864a57.213,57.213,0,0,0,8.048,10.911C393.586,149.972,396.415,147.144,394.6,145.316Z"/><path class="b" d="M355.452,147.453c1.313,10.3,1.932,20.7,2.536,31.065q1.1,18.816,1.689,37.658c.2,6.017.364,12.036.467,18.055.045,2.571,4.045,2.58,4,0-.195-11.373-.588-22.743-1.074-34.107-.526-12.28-1.156-24.561-2.093-36.818-.4-5.293-.854-10.587-1.525-15.853a2.064,2.064,0,0,0-2-2,2.012,2.012,0,0,0-2,2Z"/><path class="b" d="M448.505,146.963c-.81,8.7-1.046,17.483-1.434,26.212q-.906,20.368-1.563,40.749c-.219,6.815-.418,13.63-.559,20.447-.053,2.575,3.947,2.574,4,0,.265-12.825.708-25.646,1.191-38.465.47-12.448.977-24.9,1.63-37.337.2-3.868.376-7.747.735-11.606a2.015,2.015,0,0,0-2-2,2.043,2.043,0,0,0-2,2Z"/><path class="b" d="M382.5,132.385c-6.493,3-13.22,5.5-19.837,8.216-3.129,1.282-6.553,2.435-9.4,4.279-4.169,2.7-5.438,7.474-7.011,11.911-1.655,4.669-3.051,9.422-4.581,14.132-.8,2.455,3.065,3.506,3.858,1.064,1.267-3.9,2.433-7.84,3.748-11.729.762-2.252,1.581-4.482,2.423-6.705.761-2.008,1.56-3.863,3.41-5.1,2.636-1.768,5.843-2.853,8.77-4.052,3.433-1.405,6.879-2.782,10.315-4.181,3.462-1.408,6.935-2.809,10.328-4.378a2.015,2.015,0,0,0,.718-2.736,2.047,2.047,0,0,0-2.737-.717Z"/><path class="b" d="M345.721,187.352c-3.48-7.715-6.667-15.55-9.853-23.388a2.039,2.039,0,0,0-2.938-1.2c-6.305,3.308-13.032,6.642-20.019,8.206a2.019,2.019,0,0,0-1.4,2.46c2.018,6.454,3.952,12.938,6.249,19.3,2.02,5.592,4.148,11.511,7.361,16.551,2.9,4.553,7.264,7.8,12.856,7.688,5.747-.119,10.532-2.994,14.442-7a126.706,126.706,0,0,0,9.937-11.595,2.012,2.012,0,0,0-.718-2.737,2.05,2.05,0,0,0-2.736.718l-.459.6c-.067.087-.638.81-.3.392q-.987,1.231-2,2.445c-1.566,1.878-3.167,3.727-4.825,5.524a34.566,34.566,0,0,1-4.859,4.7,15.715,15.715,0,0,1-7.091,2.85c-4.714.61-8.328-1.749-10.793-5.613-2.872-4.5-4.806-9.729-6.637-14.715-2.44-6.643-4.458-13.428-6.57-20.18l-1.4,2.46a61.969,61.969,0,0,0,10.541-3.666q5.316-2.254,10.434-4.943l-2.938-1.2c3.316,8.159,6.634,16.314,10.257,24.343a2.015,2.015,0,0,0,2.736.718,2.048,2.048,0,0,0,.717-2.736Z"/><path class="b" d="M422.64,135.707c6.984,2.819,14.029,5.485,20.98,8.389,1.516.633,3.028,1.28,4.522,1.967,1.941.892,4.262,1.688,5.747,3.276,1.747,1.868,2.525,4.654,3.382,7,.906,2.483,1.738,4.991,2.521,7.514,1.767,5.69,3.432,11.392,5.555,16.963a2.058,2.058,0,0,0,2.461,1.4,2.014,2.014,0,0,0,1.4-2.46c-1.942-5.1-3.519-10.3-5.109-15.512-.807-2.648-1.652-5.284-2.58-7.892a39.122,39.122,0,0,0-3.395-8.01c-2.422-3.794-6.974-5.349-10.945-7.049-4.048-1.734-8.136-3.372-12.228-5-3.746-1.487-7.507-2.938-11.244-4.446a2.012,2.012,0,0,0-2.46,1.4,2.049,2.049,0,0,0,1.4,2.46Z"/><path class="a" d="M401.511,184.345a20.74,20.74,0,0,0-2.115,2.327,40.167,40.167,0,0,0,3.627,3.351l.356.264a16.866,16.866,0,0,1,7.982-5.956,37.21,37.21,0,0,1,15.02-2.7c5.075.167,10.678,1.761,14.462,5.372,3.093-3.548,8.866-6.3,13.324-7.414a40.227,40.227,0,0,1,13.478-.717,21.793,21.793,0,0,1,7.779,2.22l.1-.1c.789-.749,2.366-2.326,3.706-3.746-4.849-3.666-7.568-4.214-13.286-4.77-4.352-.424-9.3-.566-13.55.5s-9.711,2.838-12.734,6.2c-3.4-2.4-8.166-3.759-13.281-3.927a37.21,37.21,0,0,0-15.02,2.7,26.843,26.843,0,0,0-6.169,3.287A42.533,42.533,0,0,0,401.511,184.345Z"/><path class="f" d="M463.094,199.494c3.286-2.926,13.668-12.676,16.454-15.464-2.287-2.365-6.656-4.665-11.9-5.154a40.227,40.227,0,0,0-13.478.717c-4.458,1.114-10.231,3.866-13.324,7.414-3.784-3.611-9.387-5.205-14.462-5.372a37.21,37.21,0,0,0-15.02,2.7,16.419,16.419,0,0,0-9.166,7.9c2.974,2.6,14,11.074,17.094,13.53Z"/><path class="a" d="M448.86,191.494q-.3-.243-.608-.48c-2.61-2.016-4.5-2.331-7.183-.833l-1.44,1.25c-1.1-1.164-2.027-2.128-2.424-2.472a4.477,4.477,0,0,0-4.3-.966c-1.7.63-2.405,1.557-2.405,2.976,0,0-.069.513-.161,1.207-.9-.951-1.708-1.77-2.326-2.324-.522-.468-3.07-1.724-4.765-.45a2.752,2.752,0,0,0-.861,3.948,5.19,5.19,0,0,1,.249.472l-.38-.2a3.858,3.858,0,0,0-5.457,1.966,5.536,5.536,0,0,0,.437,3.624c1.1,2.124,5.9,7.45,8.487,10.186,5.934,4.2,15.4,1.275,22.99-.489a10.014,10.014,0,0,0,3.006-1.293c2.837-1.969,4.3-4.39,6.615-6.95a18.028,18.028,0,0,0,2.6-3.154,6.671,6.671,0,0,0,.956-4.68,3.519,3.519,0,0,0-1.326-2.1c-1.128-.744-2.638-.389-3.889.122a19.35,19.35,0,0,0-5.154,3.118A24.053,24.053,0,0,0,448.86,191.494Z"/><path class="b" d="M450.712,205.891c-1.586,1.07-3.549,1.332-5.373,1.773-2.175.524-4.354,1.041-6.56,1.419-3.814.652-8.134.982-11.58-1.1-2.211-1.332-4.224,2.125-2.019,3.454,4.185,2.523,9.2,2.348,13.861,1.629,2.414-.372,4.794-.931,7.167-1.5,2.22-.534,4.593-.919,6.523-2.222,2.123-1.432.123-4.9-2.019-3.454Z"/><path class="b" d="M454.364,194.305a22.885,22.885,0,0,0-6.382-5.9,7.65,7.65,0,0,0-3.838-1.16,8.547,8.547,0,0,0-4.085,1.209,2.018,2.018,0,0,0-.717,2.736,2.041,2.041,0,0,0,2.736.718c.12-.066.239-.131.361-.193.04-.021.5-.24.285-.144-.18.08.152-.057.186-.07.11-.039.22-.076.332-.109a6.051,6.051,0,0,1,.726-.166c-.439.073.084.016.254.019.061,0,.507.025.2,0-.274-.022.064.015.121.028a4.937,4.937,0,0,1,.621.176c.169.059.321.144.074.022.106.053.214.1.319.158.253.132.5.279.738.434s.46.312.684.476c.288.211-.167-.133.095.071.131.1.261.206.39.31.438.355.867.721,1.283,1.1s.817.773,1.2,1.183c.18.194.357.39.53.591q.16.189.317.381c.231.282-.267-.362.115.146a2.053,2.053,0,0,0,2.737.717,2.02,2.02,0,0,0,.717-2.736Z"/><path class="b" d="M446.668,195.988c-1.815-1.708-3.442-3.646-5.147-5.464-.846-.9-1.685-1.816-2.575-2.675a6.817,6.817,0,0,0-5.882-1.956,5.3,5.3,0,0,0-4.561,5.076,2,2,0,0,0,4,0c0-.12,0-.239.016-.359-.036.248-.03.259.016.033.072-.217.06-.208-.036.025a2.428,2.428,0,0,1,.156-.277c-.212.374.122-.114.244-.21-.313.246.331-.164.4-.2a2.144,2.144,0,0,1,.522-.177l.08-.016c.141-.008.282-.008.423,0,.248.019.286.021.115.008.145.029.288.065.43.107a.866.866,0,0,1,.363.136,11.655,11.655,0,0,1,2.689,2.5c1.968,2.08,3.829,4.315,5.915,6.279a2,2,0,1,0,2.828-2.829Z"/><path class="b" d="M420.7,204.347c-5.687-4.508-11.616-8.766-17.093-13.53l.312,2.423c3.235-6.041,10.061-8.377,16.506-9.3,6.471-.926,14.01-.16,19,4.48a2.025,2.025,0,0,0,2.828,0c4.2-4.7,11.055-7.189,17.211-7.671,6.3-.494,13.931-.075,18.666,4.695v-2.829c-5.319,5.308-10.848,10.461-16.454,15.463-1.925,1.718.912,4.539,2.829,2.829,5.606-5,11.134-10.156,16.453-15.463a2.031,2.031,0,0,0,0-2.829c-5.5-5.538-14.1-6.446-21.494-5.866-7.178.562-15.121,3.348-20.039,8.842h2.828c-5.989-5.568-14.622-6.662-22.433-5.574-7.626,1.063-15.545,4.088-19.356,11.2a2.038,2.038,0,0,0,.313,2.424c5.478,4.765,11.406,9.023,17.094,13.53a2.062,2.062,0,0,0,2.828,0,2.013,2.013,0,0,0,0-2.828Z"/><path class="b" d="M404.033,188.3c.329.253-.429-.381-.568-.5q-.55-.485-1.088-.985a16.034,16.034,0,0,1-1.567-1.55v2.828c4.438-5.672,11.053-8.906,18.014-10.257,6.577-1.275,14.167-.822,19.829,3.073a2.009,2.009,0,0,0,2.423-.312c2.228-2.4,5.337-3.729,8.4-4.713a33.759,33.759,0,0,1,10.327-1.715,51.911,51.911,0,0,1,10.306.872,19.9,19.9,0,0,1,8.111,3.942l-.405-3.141c-1.208,1.274-2.437,2.531-3.706,3.745-1.864,1.783.968,4.609,2.829,2.829,1.269-1.214,2.5-2.472,3.706-3.746a2.037,2.037,0,0,0-.4-3.141,22.528,22.528,0,0,0-9.066-4.346,56.726,56.726,0,0,0-11.818-1.01,37.561,37.561,0,0,0-11.657,2.089c-3.456,1.18-6.93,2.789-9.453,5.506l2.424-.313c-6.424-4.419-15-4.912-22.454-3.561-7.7,1.394-15.339,5.112-20.236,11.371a2.084,2.084,0,0,0,0,2.828,24.28,24.28,0,0,0,4.032,3.664,2.01,2.01,0,0,0,2.736-.718,2.051,2.051,0,0,0-.717-2.736Z"/><path class="b" d="M423.269,191.9a5.917,5.917,0,0,0-6.392.444,5.334,5.334,0,0,0-2.2,4.664,8.764,8.764,0,0,0,1.98,4.951c1.125,1.51,2.337,2.954,3.575,4.372q1.981,2.27,4.054,4.46c1.772,1.875,4.6-.957,2.829-2.829q-1.914-2.025-3.755-4.118-1.032-1.173-2.031-2.374c-.306-.37-.605-.745-.905-1.12a1.38,1.38,0,0,1-.151-.194c-.123-.164-.247-.328-.367-.494a9.4,9.4,0,0,1-.955-1.461,3.249,3.249,0,0,1-.279-1.425c0-.075.038-.69-.012-.305.009-.068.161-.674.04-.306-.116.352.1-.13.13-.2.16-.346-.251.223.052-.067a6.547,6.547,0,0,1,.483-.459c-.278.217.1-.029.186-.092.322-.225-.15,0,.211-.1a3.766,3.766,0,0,1,.378-.1l.073,0a1.728,1.728,0,0,1,1.037.221,2.051,2.051,0,0,0,2.736-.718,2.018,2.018,0,0,0-.717-2.736Z"/><path class="b" d="M438.6,198.268c-1.707-1.85-3.372-3.74-5.07-5.6-.839-.918-1.684-1.832-2.551-2.724a13.021,13.021,0,0,0-2.224-2.019c-2.681-1.7-6.42-1.4-8.172,1.458a4.673,4.673,0,0,0-.125,4.61,23.563,23.563,0,0,0,2.812,3.824,75.4,75.4,0,0,0,5.834,6.567c1.836,1.809,4.666-1.018,2.829-2.828a62.4,62.4,0,0,1-4.641-5.085c-.74-.91-1.468-1.829-2.209-2.739a9.286,9.286,0,0,1-.962-1.394c-.052-.092-.11-.179-.16-.273-.158-.294.064.227-.029-.078-.015-.051-.107-.445-.054-.2.045.207.053-.3-.01.048a1.794,1.794,0,0,1,.1-.369c-.122.288.037-.029.066-.061-.165.183.078-.1.09-.109a3.4,3.4,0,0,1,.346-.323c.067-.053.079-.047.251-.092.064-.016.381-.05.068-.024a4.221,4.221,0,0,1,.5,0c.333.012-.263-.061.059,0,.095.02.191.039.286.063a6.186,6.186,0,0,1,.7.226c-.39-.149.123.071.232.133.068.039.14.093.212.128.305.15-.3-.3-.134-.1.543.667,1.284,1.24,1.882,1.864.758.791,1.5,1.6,2.239,2.405,1.674,1.833,3.315,3.695,5,5.518a2,2,0,1,0,2.828-2.828Z"/><path class="b" d="M453.768,194.741a20.335,20.335,0,0,1,3.1-1.8c.641-.3,1.769-.862,2.462-.611.435.158.651.89.7,1.408a5.428,5.428,0,0,1-.926,2.97,12.242,12.242,0,0,1-1.775,2.112c-.734.784-1.425,1.6-2.106,2.435a24.319,24.319,0,0,1-4.509,4.639,2.055,2.055,0,0,0-.717,2.737,2.016,2.016,0,0,0,2.736.717,33.368,33.368,0,0,0,6.046-6.143c.82-.974,1.723-1.87,2.551-2.836a11.9,11.9,0,0,0,2.285-4.027c.976-2.9.091-6.949-3.23-7.859-2.944-.808-6.318,1.182-8.634,2.807a2.054,2.054,0,0,0-.718,2.736,2.018,2.018,0,0,0,2.737.718Z"/><path class="b" d="M398.588,109.759a12.49,12.49,0,0,0,6.011,1.4,9.882,9.882,0,0,0,6.165-1.861,2,2,0,0,0,0-2.828,2.06,2.06,0,0,0-2.828,0c.687-.536-.05,0-.269.119-.17.088-.631.23-.01.024-.165.055-.325.125-.491.178-.209.068-.421.125-.635.174a3.381,3.381,0,0,0-.739.14c.181-.1.32-.038,0-.007-.134.014-.269.025-.4.034-.326.021-.651.029-.977.027-.292,0-.583-.012-.874-.032-.134-.009-.267-.019-.4-.033-.076-.007-.152-.016-.228-.025-.156-.019-.1-.011.169.022a1.934,1.934,0,0,1-.658-.122c-.21-.047-.419-.1-.625-.163-.18-.053-.355-.118-.533-.179-.457-.156.41.2,0,0-.22-.1-.437-.212-.653-.325a2,2,0,0,0-2.019,3.454Z"/><path class="b" d="M403.352,95.9a27.061,27.061,0,0,1,.636,2.908l-.072-.532a1.745,1.745,0,0,1,.011.4l.072-.532a1.017,1.017,0,0,1-.044.181l.2-.478a.656.656,0,0,1-.064.116l.313-.4a.563.563,0,0,1-.095.094l.4-.313a1.876,1.876,0,0,1-.23.122l.477-.2a1.729,1.729,0,0,1-.388.113l.532-.072a1.537,1.537,0,0,1-.365,0l.532.071c-.137-.019-.272-.052-.41-.071a1.522,1.522,0,0,0-.8-.036,1.493,1.493,0,0,0-.744.238,2,2,0,0,0-.717,2.736,1.91,1.91,0,0,0,1.195.919c.358.048.7.138,1.07.154a3.5,3.5,0,0,0,1.634-.4,2.471,2.471,0,0,0,1.335-1.614,3.835,3.835,0,0,0-.014-1.682c-.158-.937-.375-1.865-.616-2.784a2,2,0,0,0-2.46-1.4,2.017,2.017,0,0,0-1.2.919,2.1,2.1,0,0,0-.2,1.541Z"/><path class="b" d="M388.466,87.527c-.486,1.578-.169,5.209,2.821,5.518,3.951-.024,4.162-4.413,2.831-6.477C393.029,84.878,389.827,84.175,388.466,87.527Z"/><path class="b" d="M420.112,87.527c.485,1.578.169,5.209-2.821,5.518-3.952-.024-4.162-4.414-2.832-6.477C415.548,84.878,418.751,84.175,420.112,87.527Z"/></svg>